# xmcd
#
# Track frame offsets: 
#        150
#        32030
#        63246
#        84105
#        108869
#        133921
#        166182
#        195321
#        219080
#
# Disc length: 3429 seconds
#
# Revision: 0
# Processed by: cddbd v1.5.2PL0 Copyright (c) Steve Scherf et al.
# Submitted via: ExactAudioCopy v1.0b3
#
DISCID=670d6309
DTITLE=Zach Day and Full Throttle - Deeper Shade of Blue
DYEAR=2013
DGENRE=Blues-Rock
TTITLE0=Thrill Is Gone - Don't Know Where Ya Gone
TTITLE1=Sweet Home Chicago
TTITLE2=Make Everyting All Right
TTITLE3=Midnight Blues
TTITLE4=Deeper Shade of Blue
TTITLE5=Tears Came Rollin'
TTITLE6=People Get Ready
TTITLE7=I Don't Know
TTITLE8=No Place to Go - Blues Is Alright
EXTD=
EXTT0=
EXTT1=
EXTT2=
EXTT3=
EXTT4=
EXTT5=
EXTT6=
EXTT7=
EXTT8=
PLAYORDER=
